<svg width="24" height="25" viewBox="0 0 24 25" fill="none" xmlns="http://www.w3.org/2000/svg">
<path d="M2.25 3.75H3.636C4.146 3.75 4.591 4.093 4.723 4.585L5.106 6.022M5.106 6.022C10.6766 5.86589 16.2419 6.48515 21.642 7.862C20.818 10.316 19.839 12.7 18.718 15H7.5M5.106 6.022L7.5 15M7.5 15C6.70435 15 5.94129 15.3161 5.37868 15.8787C4.81607 16.4413 4.5 17.2044 4.5 18H20.25M6 21C6 21.1989 5.92098 21.3897 5.78033 21.5303C5.63968 21.671 5.44891 21.75 5.25 21.75C5.05109 21.75 4.86032 21.671 4.71967 21.5303C4.57902 21.3897 4.5 21.1989 4.5 21C4.5 20.8011 4.57902 20.6103 4.71967 20.4697C4.86032 20.329 5.05109 20.25 5.25 20.25C5.44891 20.25 5.63968 20.329 5.78033 20.4697C5.92098 20.6103 6 20.8011 6 21ZM18.75 21C18.75 21.1989 18.671 21.3897 18.5303 21.5303C18.3897 21.671 18.1989 21.75 18 21.75C17.8011 21.75 17.6103 21.671 17.4697 21.5303C17.329 21.3897 17.25 21.1989 17.25 21C17.25 20.8011 17.329 20.6103 17.4697 20.4697C17.6103 20.329 17.8011 20.25 18 20.25C18.1989 20.25 18.3897 20.329 18.5303 20.4697C18.671 20.6103 18.75 20.8011 18.75 21Z" stroke="#181818" stroke-width="1.5" stroke-linecap="round" stroke-linejoin="round"/>
</svg>

