<svg width="335" height="36" viewBox="0 0 335 36" fill="none" xmlns="http://www.w3.org/2000/svg">
<mask id="path-1-outside-1_0_285" maskUnits="userSpaceOnUse" x="-1" y="-1" width="338" height="38" fill="black">
<rect fill="white" x="-1" y="-1" width="338" height="38"/>
<path d="M0.552 35V0.919998H12.984C22.248 0.919998 26.904 3.848 26.904 10.376C26.904 14.456 24.36 16.952 19.848 17.336C25.368 17.768 28.344 20.6 28.344 25.352C28.344 31.64 23.688 35 14.904 35H0.552ZM7.896 29H15.096C18.6 29 20.904 27.608 20.904 24.728C20.904 21.8 18.6 20.36 15.096 20.36H7.896V29ZM7.896 14.984H13.608C17.208 14.984 19.464 13.64 19.464 10.952C19.464 8.168 17.304 6.92 13.608 6.92H7.896V14.984ZM33.7864 0.919998H57.5464V7.112H41.1304V14.888H56.9704V20.936H41.1304V28.808H57.9304V35H33.7864V0.919998ZM69.8858 23.384C70.5578 27.08 73.1018 29.432 77.3738 29.432C80.6378 29.432 82.8458 28.136 82.7978 25.688C82.7498 23.192 80.5898 21.8 75.3098 20.456C67.9178 18.728 63.2138 15.752 63.2138 10.232C63.2138 4.04 68.3498 0.151999 76.0778 0.151999C83.7578 0.151999 88.9418 4.808 89.7098 11.72L82.4138 12.008C81.9818 8.504 79.5338 6.248 75.9338 6.248C72.7657 6.248 70.5578 7.88 70.6538 10.328C70.7978 13.256 74.2538 14.168 77.8058 15.032C85.3898 16.712 90.2378 20.024 90.2378 25.448C90.2378 31.928 84.5258 35.576 77.1818 35.576C68.8298 35.576 63.0698 31.016 62.5418 23.816L69.8858 23.384ZM120.774 0.919998V7.112H110.598V35H103.206V7.112H93.0304V0.919998H120.774ZM255.083 0.919998H262.427V35H255.083V0.919998ZM269.521 0.919998H277.585L290.977 24.248V0.919998H298.321V35H289.969L276.865 12.488V35H269.521V0.919998ZM334.995 35H330.531L330.147 30.008C328.563 33.56 324.627 35.768 319.875 35.768C310.179 35.768 303.843 28.088 303.843 18.008C303.843 7.88 310.179 0.151999 320.259 0.151999C328.035 0.151999 333.267 4.664 334.899 12.104L327.315 12.44C326.403 8.552 323.955 6.344 320.115 6.344C314.115 6.344 311.379 11.384 311.379 18.008C311.379 24.584 314.163 29.576 320.115 29.576C324.531 29.576 327.027 26.744 327.603 22.664H320.115V17.24H334.995V35Z"/>
<path d="M142.823 23.384C143.495 27.08 146.039 29.432 150.311 29.432C153.575 29.432 155.783 28.136 155.735 25.688C155.687 23.192 153.527 21.8 148.247 20.456C140.855 18.728 136.151 15.752 136.151 10.232C136.151 4.04 141.287 0.151999 149.015 0.151999C156.695 0.151999 161.879 4.808 162.647 11.72L155.351 12.008C154.919 8.504 152.471 6.248 148.871 6.248C145.703 6.248 143.495 7.88 143.591 10.328C143.735 13.256 147.191 14.168 150.743 15.032C158.327 16.712 163.175 20.024 163.175 25.448C163.175 31.928 157.463 35.576 150.119 35.576C141.767 35.576 136.007 31.016 135.479 23.816L142.823 23.384ZM168.505 0.919998H192.265V7.112H175.849V14.888H191.689V20.936H175.849V28.808H192.649V35H168.505V0.919998ZM198.365 35V0.919998H205.709V28.808H221.405V35H198.365ZM226.818 35V0.919998H234.162V28.808H249.858V35H226.818Z"/>
</mask>
<path d="M0.552 35H-0.448V36H0.552V35ZM0.552 0.919998V-0.0800018H-0.448V0.919998H0.552ZM19.848 17.336L19.7632 16.3396L19.77 18.333L19.848 17.336ZM7.896 29H6.896V30H7.896V29ZM7.896 20.36V19.36H6.896V20.36H7.896ZM7.896 14.984H6.896V15.984H7.896V14.984ZM7.896 6.92V5.92H6.896V6.92H7.896ZM1.552 35V0.919998H-0.448V35H1.552ZM0.552 1.92H12.984V-0.0800018H0.552V1.92ZM12.984 1.92C17.5461 1.92 20.7866 2.64761 22.8633 4.03205C24.8612 5.36395 25.904 7.38708 25.904 10.376H27.904C27.904 6.83692 26.6188 4.13204 23.9727 2.36795C21.4054 0.656382 17.6859 -0.0800018 12.984 -0.0800018V1.92ZM25.904 10.376C25.904 12.1986 25.3423 13.5682 24.3663 14.5296C23.378 15.503 21.8596 16.1612 19.7632 16.3396L19.9328 18.3324C22.3484 18.1268 24.358 17.345 25.7697 15.9544C27.1937 14.5518 27.904 12.6334 27.904 10.376H25.904ZM19.77 18.333C22.3856 18.5377 24.2632 19.301 25.4789 20.4506C26.6766 21.5831 27.344 23.1961 27.344 25.352H29.344C29.344 22.7559 28.5234 20.5769 26.8531 18.9974C25.2008 17.435 22.8304 16.5663 19.926 16.339L19.77 18.333ZM27.344 25.352C27.344 28.2165 26.3024 30.3073 24.3343 31.722C22.3127 33.1752 19.194 34 14.904 34V36C19.398 36 22.9993 35.1448 25.5017 33.346C28.0576 31.5087 29.344 28.7755 29.344 25.352H27.344ZM14.904 34H0.552V36H14.904V34ZM7.896 30H15.096V28H7.896V30ZM15.096 30C16.9576 30 18.6406 29.6339 19.8865 28.7639C21.1836 27.8582 21.904 26.4757 21.904 24.728H19.904C19.904 25.8603 19.4724 26.6138 18.7415 27.1241C17.9594 27.6701 16.7384 28 15.096 28V30ZM21.904 24.728C21.904 22.9641 21.1903 21.5595 19.8961 20.6329C18.6496 19.7404 16.9634 19.36 15.096 19.36V21.36C16.7326 21.36 17.9504 21.6996 18.7319 22.2591C19.4657 22.7845 19.904 23.5639 19.904 24.728H21.904ZM15.096 19.36H7.896V21.36H15.096V19.36ZM6.896 20.36V29H8.896V20.36H6.896ZM7.896 15.984H13.608V13.984H7.896V15.984ZM13.608 15.984C15.5081 15.984 17.1955 15.6333 18.4384 14.8096C19.7375 13.9486 20.464 12.6246 20.464 10.952H18.464C18.464 11.9674 18.0625 12.6594 17.3336 13.1424C16.5485 13.6627 15.3079 13.984 13.608 13.984V15.984ZM20.464 10.952C20.464 9.2563 19.7811 7.91914 18.4721 7.05688C17.2327 6.24054 15.5384 5.92 13.608 5.92V7.92C15.3736 7.92 16.6073 8.22346 17.3719 8.72711C18.0669 9.18486 18.464 9.86369 18.464 10.952H20.464ZM13.608 5.92H7.896V7.92H13.608V5.92ZM6.896 6.92V14.984H8.896V6.92H6.896ZM33.7864 0.919998V-0.0800018H32.7864V0.919998H33.7864ZM57.5464 0.919998H58.5464V-0.0800018H57.5464V0.919998ZM57.5464 7.112V8.112H58.5464V7.112H57.5464ZM41.1304 7.112V6.112H40.1304V7.112H41.1304ZM41.1304 14.888H40.1304V15.888H41.1304V14.888ZM56.9704 14.888H57.9704V13.888H56.9704V14.888ZM56.9704 20.936V21.936H57.9704V20.936H56.9704ZM41.1304 20.936V19.936H40.1304V20.936H41.1304ZM41.1304 28.808H40.1304V29.808H41.1304V28.808ZM57.9304 28.808H58.9304V27.808H57.9304V28.808ZM57.9304 35V36H58.9304V35H57.9304ZM33.7864 35H32.7864V36H33.7864V35ZM33.7864 1.92H57.5464V-0.0800018H33.7864V1.92ZM56.5464 0.919998V7.112H58.5464V0.919998H56.5464ZM57.5464 6.112H41.1304V8.112H57.5464V6.112ZM40.1304 7.112V14.888H42.1304V7.112H40.1304ZM41.1304 15.888H56.9704V13.888H41.1304V15.888ZM55.9704 14.888V20.936H57.9704V14.888H55.9704ZM56.9704 19.936H41.1304V21.936H56.9704V19.936ZM40.1304 20.936V28.808H42.1304V20.936H40.1304ZM41.1304 29.808H57.9304V27.808H41.1304V29.808ZM56.9304 28.808V35H58.9304V28.808H56.9304ZM57.9304 34H33.7864V36H57.9304V34ZM34.7864 35V0.919998H32.7864V35H34.7864ZM69.8857 23.384L70.8696 23.2051L70.7112 22.3337L69.827 22.3857L69.8857 23.384ZM82.7978 25.688L81.7979 25.7072L81.7979 25.7076L82.7978 25.688ZM75.3098 20.456L75.5564 19.4869L75.5469 19.4845L75.5374 19.4823L75.3098 20.456ZM89.7098 11.72L89.7492 12.7192L90.8222 12.6769L90.7036 11.6096L89.7098 11.72ZM82.4137 12.008L81.4213 12.1304L81.5338 13.0435L82.4532 13.0072L82.4137 12.008ZM70.6537 10.328L69.6545 10.3672L69.655 10.3771L70.6537 10.328ZM77.8057 15.032L77.5694 16.0037L77.5794 16.0061L77.5895 16.0083L77.8057 15.032ZM62.5417 23.816L62.483 22.8177L61.4702 22.8773L61.5444 23.8891L62.5417 23.816ZM68.9019 23.5629C69.2713 25.5947 70.1718 27.3332 71.6378 28.5607C73.1051 29.7894 75.0505 30.432 77.3737 30.432V28.432C75.425 28.432 73.9624 27.8986 72.9217 27.0273C71.8797 26.1548 71.1722 24.8693 70.8696 23.2051L68.9019 23.5629ZM77.3737 30.432C79.1163 30.432 80.7022 30.0895 81.8788 29.3125C83.1049 28.5028 83.8286 27.2517 83.7976 25.6684L81.7979 25.7076C81.8149 26.5723 81.4586 27.1932 80.7767 27.6435C80.0453 28.1265 78.8952 28.432 77.3737 28.432V30.432ZM83.7976 25.6688C83.7665 24.0519 83.0132 22.7984 81.5818 21.8156C80.2207 20.8812 78.2131 20.1631 75.5564 19.4869L75.0631 21.4251C77.6864 22.0929 79.3988 22.7428 80.4497 23.4644C81.4303 24.1376 81.781 24.8281 81.7979 25.7072L83.7976 25.6688ZM75.5374 19.4823C71.8964 18.6311 69.0387 17.497 67.1076 15.9797C65.222 14.4981 64.2138 12.6525 64.2138 10.232H62.2138C62.2138 13.3315 63.5575 15.7338 65.8719 17.5523C68.1408 19.335 71.3311 20.5529 75.0821 21.4297L75.5374 19.4823ZM64.2138 10.232C64.2138 7.44232 65.357 5.21498 67.3608 3.66003C69.3897 2.08563 72.3699 1.152 76.0778 1.152V-0.848001C72.0576 -0.848001 68.6058 0.162368 66.1347 2.07997C63.6385 4.01702 62.2138 6.82968 62.2138 10.232H64.2138ZM76.0778 1.152C79.7125 1.152 82.6868 2.25103 84.8327 4.10134C86.9767 5.95001 88.3572 8.60246 88.7159 11.8304L90.7036 11.6096C90.2943 7.92554 88.6988 4.79399 86.1388 2.58666C83.5807 0.380965 80.123 -0.848001 76.0778 -0.848001V1.152ZM89.6703 10.7208L82.3743 11.0088L82.4532 13.0072L89.7492 12.7192L89.6703 10.7208ZM83.4062 11.8856C83.165 9.92855 82.3498 8.25501 81.0298 7.06991C79.7081 5.8832 77.9488 5.248 75.9338 5.248V7.248C77.5187 7.248 78.7834 7.7408 79.6937 8.55809C80.6057 9.37699 81.2306 10.5834 81.4213 12.1304L83.4062 11.8856ZM75.9338 5.248C74.1903 5.248 72.6157 5.69582 71.4632 6.57492C70.286 7.47298 69.5929 8.79615 69.6545 10.3672L71.653 10.2888C71.6186 9.41185 71.9815 8.69502 72.6763 8.16508C73.3958 7.61618 74.5092 7.248 75.9338 7.248V5.248ZM69.655 10.3771C69.751 12.33 70.9894 13.5466 72.4839 14.3378C73.9406 15.109 75.8212 15.5784 77.5694 16.0037L78.0421 14.0603C76.2383 13.6216 74.615 13.203 73.4196 12.5702C72.2621 11.9574 71.7005 11.254 71.6525 10.2789L69.655 10.3771ZM77.5895 16.0083C81.3092 16.8323 84.2512 18.0361 86.2437 19.619C88.2016 21.1744 89.2377 23.085 89.2377 25.448H91.2377C91.2377 22.387 89.8499 19.9296 87.4878 18.053C85.1603 16.2039 81.8863 14.9117 78.022 14.0557L77.5895 16.0083ZM89.2377 25.448C89.2377 28.3551 87.9733 30.5935 85.872 32.1359C83.7412 33.6999 80.7022 34.576 77.1817 34.576V36.576C81.0053 36.576 84.4943 35.6281 87.0555 33.7481C89.6462 31.8465 91.2377 29.0209 91.2377 25.448H89.2377ZM77.1817 34.576C73.1831 34.576 69.8898 33.485 67.5524 31.6151C65.228 29.7555 63.7835 27.0761 63.5391 23.7429L61.5444 23.8891C61.828 27.7559 63.5275 30.9565 66.3031 33.1769C69.0657 35.387 72.8284 36.576 77.1817 36.576V34.576ZM62.6005 24.8143L69.9445 24.3823L69.827 22.3857L62.483 22.8177L62.6005 24.8143ZM120.774 0.919998H121.774V-0.0800018H120.774V0.919998ZM120.774 7.112V8.112H121.774V7.112H120.774ZM110.598 7.112V6.112H109.598V7.112H110.598ZM110.598 35V36H111.598V35H110.598ZM103.206 35H102.206V36H103.206V35ZM103.206 7.112H104.206V6.112H103.206V7.112ZM93.0304 7.112H92.0304V8.112H93.0304V7.112ZM93.0304 0.919998V-0.0800018H92.0304V0.919998H93.0304ZM119.774 0.919998V7.112H121.774V0.919998H119.774ZM120.774 6.112H110.598V8.112H120.774V6.112ZM109.598 7.112V35H111.598V7.112H109.598ZM110.598 34H103.206V36H110.598V34ZM104.206 35V7.112H102.206V35H104.206ZM103.206 6.112H93.0304V8.112H103.206V6.112ZM94.0304 7.112V0.919998H92.0304V7.112H94.0304ZM93.0304 1.92H120.774V-0.0800018H93.0304V1.92ZM142.823 23.384L143.807 23.2051L143.649 22.3337L142.765 22.3857L142.823 23.384ZM155.735 25.688L154.735 25.7072V25.7076L155.735 25.688ZM148.247 20.456L148.494 19.4869L148.484 19.4845L148.475 19.4823L148.247 20.456ZM162.647 11.72L162.687 12.7192L163.76 12.6769L163.641 11.6096L162.647 11.72ZM155.351 12.008L154.359 12.1304L154.471 13.0435L155.391 13.0072L155.351 12.008ZM143.591 10.328L142.592 10.3672L142.592 10.3771L143.591 10.328ZM150.743 15.032L150.507 16.0037L150.517 16.0061L150.527 16.0083L150.743 15.032ZM135.479 23.816L135.421 22.8177L134.408 22.8773L134.482 23.8891L135.479 23.816ZM141.839 23.5629C142.209 25.5947 143.109 27.3332 144.575 28.5607C146.043 29.7894 147.988 30.432 150.311 30.432V28.432C148.362 28.432 146.9 27.8986 145.859 27.0273C144.817 26.1548 144.11 24.8693 143.807 23.2051L141.839 23.5629ZM150.311 30.432C152.054 30.432 153.64 30.0895 154.816 29.3125C156.042 28.5028 156.766 27.2517 156.735 25.6684L154.735 25.7076C154.752 26.5723 154.396 27.1932 153.714 27.6435C152.983 28.1265 151.833 28.432 150.311 28.432V30.432ZM156.735 25.6688C156.704 24.0519 155.951 22.7984 154.519 21.8156C153.158 20.8812 151.151 20.1631 148.494 19.4869L148.001 21.4251C150.624 22.0929 152.336 22.7428 153.387 23.4644C154.368 24.1376 154.719 24.8281 154.735 25.7072L156.735 25.6688ZM148.475 19.4823C144.834 18.6311 141.976 17.497 140.045 15.9797C138.159 14.4981 137.151 12.6525 137.151 10.232H135.151C135.151 13.3315 136.495 15.7338 138.809 17.5523C141.078 19.335 144.269 20.5529 148.02 21.4297L148.475 19.4823ZM137.151 10.232C137.151 7.44232 138.295 5.21498 140.298 3.66003C142.327 2.08563 145.307 1.152 149.015 1.152V-0.848001C144.995 -0.848001 141.543 0.162368 139.072 2.07997C136.576 4.01702 135.151 6.82968 135.151 10.232H137.151ZM149.015 1.152C152.65 1.152 155.624 2.25103 157.77 4.10134C159.914 5.95001 161.295 8.60246 161.653 11.8304L163.641 11.6096C163.232 7.92554 161.636 4.79399 159.076 2.58666C156.518 0.380965 153.06 -0.848001 149.015 -0.848001V1.152ZM162.608 10.7208L155.312 11.0088L155.391 13.0072L162.687 12.7192L162.608 10.7208ZM156.344 11.8856C156.102 9.92855 155.287 8.25501 153.967 7.06991C152.646 5.8832 150.886 5.248 148.871 5.248V7.248C150.456 7.248 151.721 7.7408 152.631 8.55809C153.543 9.37699 154.168 10.5834 154.359 12.1304L156.344 11.8856ZM148.871 5.248C147.128 5.248 145.553 5.69582 144.401 6.57492C143.223 7.47298 142.53 8.79615 142.592 10.3672L144.59 10.2888C144.556 9.41185 144.919 8.69502 145.614 8.16508C146.333 7.61618 147.447 7.248 148.871 7.248V5.248ZM142.592 10.3771C142.689 12.33 143.927 13.5466 145.421 14.3378C146.878 15.109 148.759 15.5784 150.507 16.0037L150.98 14.0603C149.176 13.6216 147.552 13.203 146.357 12.5702C145.2 11.9574 144.638 11.254 144.59 10.2789L142.592 10.3771ZM150.527 16.0083C154.247 16.8323 157.189 18.0361 159.181 19.619C161.139 21.1744 162.175 23.085 162.175 25.448H164.175C164.175 22.387 162.787 19.9296 160.425 18.053C158.098 16.2039 154.824 14.9117 150.96 14.0557L150.527 16.0083ZM162.175 25.448C162.175 28.3551 160.911 30.5935 158.81 32.1359C156.679 33.6999 153.64 34.576 150.119 34.576V36.576C153.943 36.576 157.432 35.6281 159.993 33.7481C162.584 31.8465 164.175 29.0209 164.175 25.448H162.175ZM150.119 34.576C146.121 34.576 142.827 33.485 140.49 31.6151C138.165 29.7555 136.721 27.0761 136.477 23.7429L134.482 23.8891C134.765 27.7559 136.465 30.9565 139.241 33.1769C142.003 35.387 145.766 36.576 150.119 36.576V34.576ZM135.538 24.8143L142.882 24.3823L142.765 22.3857L135.421 22.8177L135.538 24.8143ZM168.505 0.919998V-0.0800018H167.505V0.919998H168.505ZM192.265 0.919998H193.265V-0.0800018H192.265V0.919998ZM192.265 7.112V8.112H193.265V7.112H192.265ZM175.849 7.112V6.112H174.849V7.112H175.849ZM175.849 14.888H174.849V15.888H175.849V14.888ZM191.689 14.888H192.689V13.888H191.689V14.888ZM191.689 20.936V21.936H192.689V20.936H191.689ZM175.849 20.936V19.936H174.849V20.936H175.849ZM175.849 28.808H174.849V29.808H175.849V28.808ZM192.649 28.808H193.649V27.808H192.649V28.808ZM192.649 35V36H193.649V35H192.649ZM168.505 35H167.505V36H168.505V35ZM168.505 1.92H192.265V-0.0800018H168.505V1.92ZM191.265 0.919998V7.112H193.265V0.919998H191.265ZM192.265 6.112H175.849V8.112H192.265V6.112ZM174.849 7.112V14.888H176.849V7.112H174.849ZM175.849 15.888H191.689V13.888H175.849V15.888ZM190.689 14.888V20.936H192.689V14.888H190.689ZM191.689 19.936H175.849V21.936H191.689V19.936ZM174.849 20.936V28.808H176.849V20.936H174.849ZM175.849 29.808H192.649V27.808H175.849V29.808ZM191.649 28.808V35H193.649V28.808H191.649ZM192.649 34H168.505V36H192.649V34ZM169.505 35V0.919998H167.505V35H169.505ZM198.365 35H197.365V36H198.365V35ZM198.365 0.919998V-0.0800018H197.365V0.919998H198.365ZM205.708 0.919998H206.708V-0.0800018H205.708V0.919998ZM205.708 28.808H204.708V29.808H205.708V28.808ZM221.404 28.808H222.404V27.808H221.404V28.808ZM221.404 35V36H222.404V35H221.404ZM199.365 35V0.919998H197.365V35H199.365ZM198.365 1.92H205.708V-0.0800018H198.365V1.92ZM204.708 0.919998V28.808H206.708V0.919998H204.708ZM205.708 29.808H221.404V27.808H205.708V29.808ZM220.404 28.808V35H222.404V28.808H220.404ZM221.404 34H198.365V36H221.404V34ZM226.818 35H225.818V36H226.818V35ZM226.818 0.919998V-0.0800018H225.818V0.919998H226.818ZM234.162 0.919998H235.162V-0.0800018H234.162V0.919998ZM234.162 28.808H233.162V29.808H234.162V28.808ZM249.858 28.808H250.858V27.808H249.858V28.808ZM249.858 35V36H250.858V35H249.858ZM227.818 35V0.919998H225.818V35H227.818ZM226.818 1.92H234.162V-0.0800018H226.818V1.92ZM233.162 0.919998V28.808H235.162V0.919998H233.162ZM234.162 29.808H249.858V27.808H234.162V29.808ZM248.858 28.808V35H250.858V28.808H248.858ZM249.858 34H226.818V36H249.858V34ZM255.083 0.919998V-0.0800018H254.083V0.919998H255.083ZM262.427 0.919998H263.427V-0.0800018H262.427V0.919998ZM262.427 35V36H263.427V35H262.427ZM255.083 35H254.083V36H255.083V35ZM255.083 1.92H262.427V-0.0800018H255.083V1.92ZM261.427 0.919998V35H263.427V0.919998H261.427ZM262.427 34H255.083V36H262.427V34ZM256.083 35V0.919998H254.083V35H256.083ZM269.521 0.919998V-0.0800018H268.521V0.919998H269.521ZM277.585 0.919998L278.452 0.422131L278.164 -0.0800018H277.585V0.919998ZM290.977 24.248L290.109 24.7459L291.977 27.9985V24.248H290.977ZM290.977 0.919998V-0.0800018H289.977V0.919998H290.977ZM298.321 0.919998H299.321V-0.0800018H298.321V0.919998ZM298.321 35V36H299.321V35H298.321ZM289.969 35L289.104 35.5031L289.394 36H289.969V35ZM276.865 12.488L277.729 11.9849L275.865 8.78225V12.488H276.865ZM276.865 35V36H277.865V35H276.865ZM269.521 35H268.521V36H269.521V35ZM269.521 1.92H277.585V-0.0800018H269.521V1.92ZM276.717 1.41787L290.109 24.7459L291.844 23.7501L278.452 0.422131L276.717 1.41787ZM291.977 24.248V0.919998H289.977V24.248H291.977ZM290.977 1.92H298.321V-0.0800018H290.977V1.92ZM297.321 0.919998V35H299.321V0.919998H297.321ZM298.321 34H289.969V36H298.321V34ZM290.833 34.4969L277.729 11.9849L276.001 12.9911L289.104 35.5031L290.833 34.4969ZM275.865 12.488V35H277.865V12.488H275.865ZM276.865 34H269.521V36H276.865V34ZM270.521 35V0.919998H268.521V35H270.521ZM334.995 35V36H335.995V35H334.995ZM330.531 35L329.534 35.0767L329.605 36H330.531V35ZM330.147 30.008L331.144 29.9313L329.234 29.6007L330.147 30.008ZM334.899 12.104L334.943 13.103L336.13 13.0504L335.876 11.8897L334.899 12.104ZM327.315 12.44L326.341 12.6684L326.531 13.4757L327.359 13.439L327.315 12.44ZM327.603 22.664L328.593 22.8038L328.754 21.664H327.603V22.664ZM320.115 22.664H319.115V23.664H320.115V22.664ZM320.115 17.24V16.24H319.115V17.24H320.115ZM334.995 17.24H335.995V16.24H334.995V17.24ZM334.995 34H330.531V36H334.995V34ZM331.528 34.9233L331.144 29.9313L329.15 30.0847L329.534 35.0767L331.528 34.9233ZM329.234 29.6007C327.85 32.7032 324.34 34.768 319.875 34.768V36.768C324.914 36.768 329.276 34.4168 331.06 30.4153L329.234 29.6007ZM319.875 34.768C315.31 34.768 311.577 32.9681 308.974 30.0077C306.361 27.0361 304.843 22.8418 304.843 18.008H302.843C302.843 23.2542 304.493 27.9399 307.472 31.3283C310.461 34.7279 314.744 36.768 319.875 36.768V34.768ZM304.843 18.008C304.843 13.1491 306.362 8.93371 309.018 5.94654C311.664 2.97103 315.492 1.152 320.259 1.152V-0.848001C314.946 -0.848001 310.566 1.19697 307.524 4.61746C304.492 8.02629 302.843 12.7389 302.843 18.008H304.843ZM320.259 1.152C323.947 1.152 326.964 2.21851 329.245 4.10805C331.529 6.00018 333.145 8.77705 333.922 12.3183L335.876 11.8897C335.021 7.99095 333.205 4.79182 330.521 2.56795C327.834 0.341492 324.347 -0.848001 320.259 -0.848001V1.152ZM334.855 11.105L327.271 11.441L327.359 13.439L334.943 13.103L334.855 11.105ZM328.289 12.2116C327.798 10.1183 326.871 8.38582 325.465 7.17608C324.051 5.9585 322.236 5.344 320.115 5.344V7.344C321.834 7.344 323.163 7.8335 324.161 8.69192C325.167 9.55817 325.92 10.8737 326.341 12.6684L328.289 12.2116ZM320.115 5.344C316.789 5.344 314.295 6.76354 312.673 9.12587C311.084 11.4395 310.379 14.5798 310.379 18.008H312.379C312.379 14.8122 313.042 12.1205 314.321 10.2581C315.567 8.44446 317.441 7.344 320.115 7.344V5.344ZM310.379 18.008C310.379 21.4166 311.097 24.5339 312.694 26.8291C314.323 29.1704 316.815 30.576 320.115 30.576V28.576C317.463 28.576 315.587 27.4856 314.336 25.6869C313.053 23.8421 312.379 21.1754 312.379 18.008H310.379ZM320.115 30.576C322.551 30.576 324.54 29.788 325.997 28.3657C327.441 26.9564 328.283 25.004 328.593 22.8038L326.613 22.5242C326.347 24.404 325.653 25.9076 324.601 26.9343C323.562 27.948 322.095 28.576 320.115 28.576V30.576ZM327.603 21.664H320.115V23.664H327.603V21.664ZM321.115 22.664V17.24H319.115V22.664H321.115ZM320.115 18.24H334.995V16.24H320.115V18.24ZM333.995 17.24V35H335.995V17.24H333.995Z" fill="#181818" mask="url(#path-1-outside-1_0_285)"/>
</svg>
