<svg width="24" height="25" viewBox="0 0 24 25" fill="none" xmlns="http://www.w3.org/2000/svg">
<path d="M15.75 6.75C15.75 7.74456 15.3549 8.69839 14.6516 9.40165C13.9484 10.1049 12.9945 10.5 12 10.5C11.0054 10.5 10.0516 10.1049 9.34833 9.40165C8.64506 8.69839 8.24998 7.74456 8.24998 6.75C8.24998 5.75544 8.64506 4.80161 9.34833 4.09835C10.0516 3.39509 11.0054 3 12 3C12.9945 3 13.9484 3.39509 14.6516 4.09835C15.3549 4.80161 15.75 5.75544 15.75 6.75ZM4.50098 20.868C4.53311 18.9004 5.33731 17.0242 6.74015 15.644C8.14299 14.2639 10.0321 13.4905 12 13.4905C13.9679 13.4905 15.857 14.2639 17.2598 15.644C18.6626 17.0242 19.4668 18.9004 19.499 20.868C17.1464 21.9468 14.5881 22.5035 12 22.5C9.32398 22.5 6.78398 21.916 4.50098 20.868Z" stroke="#181818" stroke-width="1.5" stroke-linecap="round" stroke-linejoin="round"/>
</svg>
