<svg width="21" height="15" viewBox="0 0 21 15" fill="none" xmlns="http://www.w3.org/2000/svg">
<path d="M20.093 2.20301C19.9791 1.78041 19.7565 1.39501 19.4474 1.08518C19.1382 0.775338 18.7533 0.551868 18.331 0.437007C16.765 0.00700739 10.5 7.59651e-06 10.5 7.59651e-06C10.5 7.59651e-06 4.23599 -0.00699261 2.66899 0.404007C2.24692 0.524154 1.86282 0.750785 1.55356 1.06214C1.2443 1.3735 1.02028 1.75913 0.902994 2.18201C0.489994 3.74801 0.485994 6.99601 0.485994 6.99601C0.485994 6.99601 0.481994 10.26 0.891994 11.81C1.12199 12.667 1.79699 13.344 2.65499 13.575C4.23699 14.005 10.485 14.012 10.485 14.012C10.485 14.012 16.75 14.019 18.316 13.609C18.7385 13.4943 19.1237 13.2714 19.4336 12.9622C19.7436 12.653 19.9674 12.2682 20.083 11.846C20.497 10.281 20.5 7.03401 20.5 7.03401C20.5 7.03401 20.52 3.76901 20.093 2.20301ZM8.49599 10.005L8.50099 4.00501L13.708 7.01001L8.49599 10.005Z" fill="white"/>
</svg>
